<?xml version="1.0" encoding="utf-8"?>
<!-- Generator: Adobe Illustrator 28.0.0, SVG Export Plug-In . SVG Version: 6.00 Build 0)  -->
<svg version="1.1" id="Layer_1" xmlns="http://www.w3.org/2000/svg" xmlns:xlink="http://www.w3.org/1999/xlink" x="0px" y="0px"
	 viewBox="0 0 600 138.6" style="enable-background:new 0 0 600 138.6;" xml:space="preserve">
<style type="text/css">
	.st0{fill:#FFFFFF;}
</style>
<g>
	<path class="st0" d="M0,44h22.8v52.7h36.3v18.1H0V44z"/>
	<path class="st0" d="M117.8,66.5c5.5,4.8,8.2,11.9,8.2,21.2s-2.7,16.3-8.2,21.2c-5.5,4.8-13,7.3-22.5,7.3c-9.5,0-17-2.4-22.4-7.2
		c-5.4-4.8-8.1-11.9-8.1-21.2s2.7-16.4,8.1-21.2c5.4-4.8,12.9-7.2,22.4-7.2C104.9,59.2,112.4,61.6,117.8,66.5z M85.3,84.7v5.9
		c0,7.7,3.4,11.5,10.1,11.5c6.8,0,10.2-3.8,10.2-11.5v-5.9c0-7.8-3.4-11.6-10.2-11.6C88.6,73.1,85.3,77,85.3,84.7z"/>
	<path class="st0" d="M136.6,114.8V40.1h20.5v74.7H136.6z"/>
	<path class="st0" d="M217.4,63.4c5.2,2.8,7.8,7.3,7.8,13.5v21.2c0,1.2,0.3,2.1,0.8,2.9c0.5,0.8,1.4,1.1,2.5,1.1h3.7V114
		c-0.2,0.1-0.7,0.4-1.6,0.7s-2.1,0.6-3.7,0.9c-1.6,0.3-3.4,0.5-5.5,0.5c-4,0-7.3-0.6-9.8-1.8c-2.6-1.2-4.3-2.9-5.3-5
		c-2.6,2.1-5.5,3.7-8.8,4.9c-3.2,1.2-7,1.9-11.3,1.9c-12.8,0-19.2-5.1-19.2-15.2c0-5.3,1.4-9.3,4.3-12.1c2.8-2.8,7-4.7,12.3-5.7
		c5.4-1,12.4-1.5,21-1.5v-2.7c0-2.1-0.7-3.7-2.2-4.8c-1.5-1.1-3.4-1.6-5.7-1.6c-2.1,0-4,0.4-5.5,1.1c-1.5,0.8-2.3,2-2.3,3.6v0.4
		h-20.2c-0.1-0.3-0.1-0.8-0.1-1.4c0-5.1,2.5-9.2,7.4-12.3c4.9-3,11.9-4.5,21.1-4.5C205.4,59.2,212.2,60.6,217.4,63.4z M191.8,93
		c-2.8,1.3-4.2,3-4.2,5.1c0,3.4,2.3,5.1,7,5.1c2.7,0,5-0.7,7.1-2.2c2-1.4,3-3.2,3-5.4v-4.6C198.9,91.1,194.6,91.8,191.8,93z"/>
	<path class="st0" d="M326.1,47c3.4,2,6.1,4.8,8,8.3c1.9,3.5,2.9,7.5,2.9,11.9v1.3c0,4.4-1,8.4-2.9,11.9c-1.9,3.6-4.6,6.4-8,8.4
		c-3.4,2-7.3,3-11.7,3h-17v22.9h-22.8V44h39.7C318.8,44,322.7,45,326.1,47z M297.4,75.4h9.4c2.4,0,4.2-0.6,5.4-1.9
		c1.2-1.2,1.8-2.9,1.8-5v-0.8c0-2.2-0.6-3.9-1.8-5.1c-1.2-1.2-3-1.8-5.4-1.8h-9.4V75.4z"/>
	<path class="st0" d="M395.8,66.2c5.3,4.7,7.9,11.8,7.9,21.4v3.5h-40.8c0,3.9,0.9,6.9,2.6,8.9c1.8,2,4.5,3,8.3,3
		c3.4,0,6-0.7,7.6-2.2c1.6-1.4,2.4-3.4,2.4-5.8h19.9c0,6.6-2.5,11.7-7.5,15.5c-5,3.7-12.3,5.6-21.9,5.6c-10.1,0-17.9-2.3-23.5-7.1
		c-5.6-4.7-8.3-11.8-8.3-21.4c0-9.3,2.7-16.4,8.1-21.2c5.4-4.8,12.9-7.2,22.4-7.2C382.9,59.2,390.5,61.5,395.8,66.2z M363,81.4h20
		c0-2.8-0.8-5-2.4-6.7c-1.6-1.6-3.9-2.5-6.7-2.5C367.3,72.3,363.7,75.3,363,81.4z"/>
	<path class="st0" d="M450.8,59.7c1.2,0.4,1.9,0.6,1.9,0.7v17.2h-6.6c-4.3,0-7.3,1.1-9.2,3.3c-1.9,2.2-2.8,5.5-2.8,9.8v24.2h-20.5
		V60.4h16.8l1.3,8.2c1.2-3.2,3.2-5.5,5.9-7.2c2.7-1.6,5.7-2.4,9.1-2.4C448.2,59.1,449.6,59.3,450.8,59.7z"/>
	<path class="st0" d="M500.8,59.7c1.2,0.4,1.9,0.6,1.9,0.7v17.2h-6.6c-4.3,0-7.3,1.1-9.2,3.3c-1.9,2.2-2.8,5.5-2.8,9.8v24.2h-20.5
		V60.4h16.8l1.3,8.2c1.2-3.2,3.2-5.5,5.9-7.2c2.7-1.6,5.7-2.4,9.1-2.4C498.2,59.1,499.6,59.3,500.8,59.7z"/>
	<path class="st0" d="M510,54.1V40.1h20.5v13.9H510z M510,114.8V60.4h20.5v54.4H510z"/>
	<path class="st0" d="M595.3,64.5c3.2,3.5,4.7,8.5,4.7,15.1v35.2h-20.5V82.1c0-2.3-0.6-4.2-1.8-5.6c-1.2-1.4-2.9-2.1-5.1-2.1
		c-2.5,0-4.6,0.8-6.2,2.5c-1.6,1.7-2.4,3.7-2.4,6.1v31.9h-20.5V60.4h16.8l1.3,8.2c2.1-2.9,4.9-5.2,8.4-6.9c3.5-1.7,7.1-2.6,11-2.6
		C587.4,59.2,592.1,61,595.3,64.5z"/>
</g>
</svg>
