<?xml version="1.0" encoding="UTF-8"?>
<svg id="svg2" xmlns="http://www.w3.org/2000/svg" viewBox="0 0 800 233.3">
  <defs>
    <style>
      .cls-1 {
        fill: #ed1c24;
      }

      .cls-1, .cls-2 {
        stroke-width: 0px;
      }
    </style>
  </defs>
  <g id="g10">
    <g id="g4273">
      <g id="g4249">
        <path id="path26" class="cls-1" d="m232.95,92.14c0-30.45,21.4-52.42,51.41-52.42,23.84,0,41.65,13.79,46.24,34.04l-17.52,4.45c-3.73-13.79-14.22-22.12-28.72-22.12-19.24,0-32.75,14.51-32.75,36.05s13.5,35.9,32.75,35.9c17.81,0,28.72-9.48,29.01-22.69h-27.43v-14.93h45.67v11.06c0,26.28-17.95,43.08-47.25,43.08s-51.41-21.97-51.41-52.42"/>
        <path id="path28" class="cls-1" d="m343.8,35.13h18.96v18.24h-18.96v-18.24Zm.72,31.17h17.81v76.12h-17.81v-76.12Z"/>
        <path id="path30" class="cls-1" d="m378.26,66.29h16.95v7.32h.29c5.17-5.46,12.49-8.76,21.4-8.76,4.31,0,8.04.72,12.21,2.01l-3.88,16.23c-4.02-1.15-6.75-1.58-10.77-1.58-11.06,0-18.38,7.47-18.38,22.55v38.35h-17.81v-76.12h0Z"/>
        <path id="path32" class="cls-1" d="m430.67,104.35c0-22.69,17.81-40.21,42.37-40.21s42.37,17.52,42.37,40.21-17.66,40.21-42.37,40.21-42.37-17.38-42.37-40.21m66.92,0c0-14.36-9.91-24.56-24.56-24.56s-24.56,10.2-24.56,24.56,9.91,24.56,24.56,24.56,24.56-10.2,24.56-24.56"/>
        <path id="path34" class="cls-1" d="m528.31,66.29h17.23v7.9h.29c6.18-6.46,15.94-10.05,26.28-10.05,21.69,0,36.33,13.79,36.33,33.89v44.38h-17.81v-41.65c0-12.93-8.19-20.68-21.4-20.68s-23.12,8.47-23.12,20.83v41.5h-17.81v-76.12h0Z"/>
        <path id="path36" class="cls-1" d="m620.78,104.35c0-22.98,17.09-40.21,40.36-40.21,10.63,0,20.11,3.3,26.28,9.33h.29v-35.9h17.81v104.84h-16.8v-8.04h-.29c-5.89,6.61-15.36,10.2-26.57,10.2-24.13,0-41.08-16.66-41.08-40.21m66.93,4.88v-10.05c0-10.77-10.92-19.39-24.27-19.39-14.93,0-24.84,9.91-24.84,24.56s9.76,24.56,24.99,24.56c13.5,0,24.13-8.76,24.13-19.67"/>
        <path id="path38" class="cls-1" d="m718.43,104.64c0-23.84,17.09-40.5,40.93-40.5s40.64,17.66,40.64,40.64v5.32h-63.91c.58,11.92,10.2,19.67,24.13,19.67,10.34,0,17.81-4.16,24.85-12.93l11.92,10.63c-8.47,10.91-20.39,17.09-36.62,17.09-25.99,0-41.93-15.8-41.93-39.92m64.05-7.47c-1-10.63-10.34-18.24-22.83-18.24s-22.12,7.61-23.27,18.24h46.1Z"/>
      </g>
      <g id="g4258">
        <path id="path40" class="cls-2" d="m246.42,193.4v-27.62h5.33v22.68h11.4v4.93h-16.73Z"/>
        <path id="path42" class="cls-2" d="m284.25,193.4v-27.62h17.48v4.93h-12.15v6.19h11.05v4.74h-11.05v6.83h12.15v4.93h-17.48Z"/>
        <path id="path44" class="cls-2" d="m351.64,193.4v-27.62h9.23c1.58,0,3.06.28,4.46.83,1.39.55,2.66,1.37,3.79,2.44,1.13,1.08,2.03,2.52,2.7,4.32.67,1.8,1.01,3.86,1.01,6.18,0,2.52-.34,4.72-1.03,6.59-.69,1.87-1.62,3.31-2.8,4.32-1.19,1.01-2.47,1.76-3.85,2.23-1.38.47-2.89.71-4.52.71h-8.99Zm5.33-4.93h3.67c.95,0,1.78-.11,2.49-.33.71-.22,1.38-.64,2.01-1.24.63-.6,1.12-1.52,1.46-2.74.34-1.22.51-2.75.51-4.6,0-3.08-.57-5.32-1.72-6.73-1.14-1.41-2.65-2.11-4.52-2.11h-3.9v17.76h0Z"/>
        <path id="path46" class="cls-2" d="m394.73,193.4v-27.62h17.48v4.93h-12.15v6.19h11.04v4.74h-11.04v6.83h12.15v4.93h-17.48Zm6-30.18l3.19-4.93h5.44l-4.34,4.93h-4.3,0Z"/>
        <path id="path48" class="cls-2" d="m434.89,193.4v-27.62h11.21c2.81,0,5.1.79,6.86,2.38,1.76,1.59,2.64,3.73,2.64,6.41s-.85,4.81-2.54,6.39c-1.7,1.58-4.02,2.37-6.96,2.37h-5.88v10.06h-5.33,0Zm5.33-14.99h5.8c1.18,0,2.15-.35,2.92-1.05.76-.7,1.14-1.62,1.14-2.78,0-1.34-.39-2.32-1.16-2.94-.77-.62-1.74-.93-2.9-.93h-5.8v7.7Z"/>
        <path id="path50" class="cls-2" d="m490.36,193.4l-1.58-4.54h-10.53l-1.58,4.54h-5.29l9.98-27.62h4.54l9.94,27.62h-5.48Zm-6.86-19.73l-3.75,10.77h7.54l-3.71-10.77h-.08Z"/>
        <path id="path52" class="cls-2" d="m516.56,193.4v-27.62h11.2c2.84,0,5.14.79,6.89,2.38,1.75,1.59,2.62,3.73,2.62,6.41,0,2-.52,3.7-1.56,5.09-1.04,1.39-2.47,2.38-4.28,2.96l5.88,10.77h-5.76l-5.56-10.26h-4.1v10.26h-5.32Zm5.32-14.87h5.45c3.02,0,4.54-1.32,4.54-3.95s-1.51-3.99-4.54-3.99h-5.45v7.93Z"/>
        <path id="path54" class="cls-2" d="m564.34,193.4v-22.69h-8.09v-4.93h21.5v4.93h-8.09v22.69h-5.33Z"/>
        <path id="path56" class="cls-2" d="m598.66,193.4v-27.62h17.48v4.93h-12.15v6.19h11.05v4.74h-11.05v6.83h12.15v4.93h-17.48Z"/>
        <path id="path58" class="cls-2" d="m638.83,193.4v-27.62h5.48l8.01,17.91h.08l8.01-17.91h5.52v27.62h-5.21v-16.97h-.08l-7.85,16.97h-.87l-7.85-16.97h-.08v16.97h-5.17Z"/>
        <path id="path60" class="cls-2" d="m689.6,193.4v-27.62h17.48v4.93h-12.15v6.19h11.05v4.74h-11.05v6.83h12.15v4.93h-17.48Z"/>
        <path id="path62" class="cls-2" d="m729.77,193.4v-27.62h5.32l10.1,18.11h.08v-18.11h5.37v27.62h-5.25l-10.22-18.11h-.08v18.11h-5.32Z"/>
        <path id="path64" class="cls-2" d="m779.63,193.4v-22.69h-8.09v-4.93h21.5v4.93h-8.09v22.69h-5.33Z"/>
      </g>
      <g id="g4245">
        <path id="path66" class="cls-2" d="m101.02,0l-33.68,19.45v61.58l69.83,54.64-69.83,54.64v23.56l33.68,19.44,101.02-58.32V58.33L101.02,0Z"/>
        <path id="path68" class="cls-1" d="m0,174.98l28.23,16.31,72.78-55.63L0,58.33v116.65h0Z"/>
      </g>
    </g>
  </g>
</svg>